<mxfile host="Electron" agent="Mozilla/5.0 (Windows NT 10.0; Win64; x64) AppleWebKit/537.36 (KHTML, like Gecko) draw.io/24.7.8 Chrome/128.0.6613.36 Electron/32.0.1 Safari/537.36" version="24.7.8" pages="2">
  <diagram name="Interaction Timeline" id="bIRfrf5866d5tdJoooNg">
    <mxGraphModel dx="1276" dy="1032" grid="1" gridSize="10" guides="1" tooltips="1" connect="1" arrows="1" fold="1" page="1" pageScale="1" pageWidth="850" pageHeight="1100" math="0" shadow="0">
      <root>
        <mxCell id="0" />
        <mxCell id="1" parent="0" />
        <mxCell id="Z_A2mOTbDEH1X2M4-zve-1" value="" style="shape=umlLifeline;perimeter=lifelinePerimeter;whiteSpace=wrap;html=1;container=1;dropTarget=0;collapsible=0;recursiveResize=0;outlineConnect=0;portConstraint=eastwest;newEdgeStyle={&quot;curved&quot;:0,&quot;rounded&quot;:0};participant=umlActor;" parent="1" vertex="1">
          <mxGeometry x="250" y="200" width="20" height="840" as="geometry" />
        </mxCell>
        <mxCell id="Z_A2mOTbDEH1X2M4-zve-2" value="Server" style="shape=umlLifeline;perimeter=lifelinePerimeter;whiteSpace=wrap;html=1;container=1;dropTarget=0;collapsible=0;recursiveResize=0;outlineConnect=0;portConstraint=eastwest;newEdgeStyle={&quot;curved&quot;:0,&quot;rounded&quot;:0};" parent="1" vertex="1">
          <mxGeometry x="90" y="200" width="100" height="840" as="geometry" />
        </mxCell>
        <mxCell id="Z_A2mOTbDEH1X2M4-zve-6" value="dispatch" style="html=1;verticalAlign=bottom;endArrow=block;curved=0;rounded=0;" parent="1" edge="1">
          <mxGeometry relative="1" as="geometry">
            <mxPoint x="259.5" y="770" as="sourcePoint" />
            <mxPoint x="139.92857142857144" y="770" as="targetPoint" />
          </mxGeometry>
        </mxCell>
        <mxCell id="Z_A2mOTbDEH1X2M4-zve-8" value="" style="shape=umlLifeline;perimeter=lifelinePerimeter;whiteSpace=wrap;html=1;container=1;dropTarget=0;collapsible=0;recursiveResize=0;outlineConnect=0;portConstraint=eastwest;newEdgeStyle={&quot;curved&quot;:0,&quot;rounded&quot;:0};participant=umlActor;" parent="1" vertex="1">
          <mxGeometry x="280" y="200" width="20" height="840" as="geometry" />
        </mxCell>
        <mxCell id="Z_A2mOTbDEH1X2M4-zve-9" value="" style="shape=umlLifeline;perimeter=lifelinePerimeter;whiteSpace=wrap;html=1;container=1;dropTarget=0;collapsible=0;recursiveResize=0;outlineConnect=0;portConstraint=eastwest;newEdgeStyle={&quot;curved&quot;:0,&quot;rounded&quot;:0};participant=umlActor;" parent="1" vertex="1">
          <mxGeometry x="310" y="200" width="20" height="510" as="geometry" />
        </mxCell>
        <mxCell id="Z_A2mOTbDEH1X2M4-zve-19" value="return" style="html=1;verticalAlign=bottom;endArrow=open;dashed=1;endSize=8;curved=0;rounded=0;" parent="1" target="Z_A2mOTbDEH1X2M4-zve-33" edge="1">
          <mxGeometry x="-0.0036" relative="1" as="geometry">
            <mxPoint x="140.02380952380946" y="590" as="targetPoint" />
            <mxPoint x="259.5" y="590" as="sourcePoint" />
            <mxPoint as="offset" />
          </mxGeometry>
        </mxCell>
        <mxCell id="Z_A2mOTbDEH1X2M4-zve-18" value="dispatch" style="html=1;verticalAlign=bottom;endArrow=block;curved=0;rounded=0;" parent="1" source="Z_A2mOTbDEH1X2M4-zve-33" edge="1">
          <mxGeometry relative="1" as="geometry">
            <mxPoint x="140" y="530" as="sourcePoint" />
            <mxPoint x="259.5000000000002" y="530" as="targetPoint" />
          </mxGeometry>
        </mxCell>
        <mxCell id="Z_A2mOTbDEH1X2M4-zve-20" value="dispatch" style="html=1;verticalAlign=bottom;endArrow=block;curved=0;rounded=0;" parent="1" source="Z_A2mOTbDEH1X2M4-zve-33" edge="1">
          <mxGeometry relative="1" as="geometry">
            <mxPoint x="140" y="550" as="sourcePoint" />
            <mxPoint x="289.5000000000002" y="550" as="targetPoint" />
          </mxGeometry>
        </mxCell>
        <mxCell id="Z_A2mOTbDEH1X2M4-zve-21" value="dispatch" style="html=1;verticalAlign=bottom;endArrow=block;curved=0;rounded=0;" parent="1" source="Z_A2mOTbDEH1X2M4-zve-33" edge="1">
          <mxGeometry relative="1" as="geometry">
            <mxPoint x="140" y="570" as="sourcePoint" />
            <mxPoint x="319.5000000000002" y="570" as="targetPoint" />
          </mxGeometry>
        </mxCell>
        <mxCell id="Z_A2mOTbDEH1X2M4-zve-22" value="return" style="html=1;verticalAlign=bottom;endArrow=open;dashed=1;endSize=8;curved=0;rounded=0;" parent="1" target="Z_A2mOTbDEH1X2M4-zve-33" edge="1">
          <mxGeometry x="-0.0036" relative="1" as="geometry">
            <mxPoint x="140.00380952380948" y="610" as="targetPoint" />
            <mxPoint x="289.5000000000002" y="610" as="sourcePoint" />
            <mxPoint as="offset" />
          </mxGeometry>
        </mxCell>
        <mxCell id="Z_A2mOTbDEH1X2M4-zve-23" value="return" style="html=1;verticalAlign=bottom;endArrow=open;dashed=1;endSize=8;curved=0;rounded=0;" parent="1" target="Z_A2mOTbDEH1X2M4-zve-33" edge="1">
          <mxGeometry x="-0.0036" relative="1" as="geometry">
            <mxPoint x="140.00380952380948" y="630" as="targetPoint" />
            <mxPoint x="319.5000000000002" y="630" as="sourcePoint" />
            <mxPoint as="offset" />
          </mxGeometry>
        </mxCell>
        <mxCell id="Z_A2mOTbDEH1X2M4-zve-24" value="World Event" style="shape=umlFrame;whiteSpace=wrap;html=1;pointerEvents=0;width=80;height=20;" parent="1" vertex="1">
          <mxGeometry x="50" y="750" width="320" height="40" as="geometry" />
        </mxCell>
        <mxCell id="Z_A2mOTbDEH1X2M4-zve-25" value="Game Tick" style="shape=umlFrame;whiteSpace=wrap;html=1;pointerEvents=0;width=80;height=20;" parent="1" vertex="1">
          <mxGeometry x="50" y="510" width="320" height="140" as="geometry" />
        </mxCell>
        <mxCell id="Z_A2mOTbDEH1X2M4-zve-26" value="Disconnect" style="shape=umlFrame;whiteSpace=wrap;html=1;pointerEvents=0;width=80;height=20;" parent="1" vertex="1">
          <mxGeometry x="50" y="660" width="320" height="80" as="geometry" />
        </mxCell>
        <mxCell id="Z_A2mOTbDEH1X2M4-zve-28" value="dispatch" style="html=1;verticalAlign=bottom;endArrow=block;curved=0;rounded=0;" parent="1" edge="1">
          <mxGeometry relative="1" as="geometry">
            <mxPoint x="319.5" y="680" as="sourcePoint" />
            <mxPoint x="139.92857142857144" y="680" as="targetPoint" />
          </mxGeometry>
        </mxCell>
        <mxCell id="Z_A2mOTbDEH1X2M4-zve-32" value="" style="shape=umlDestroy;whiteSpace=wrap;html=1;strokeWidth=3;targetShapes=umlLifeline;" parent="1" vertex="1">
          <mxGeometry x="305" y="695" width="30" height="30" as="geometry" />
        </mxCell>
        <mxCell id="Z_A2mOTbDEH1X2M4-zve-33" value="" style="html=1;points=[[0,0,0,0,5],[0,1,0,0,-5],[1,0,0,0,5],[1,1,0,0,-5]];perimeter=orthogonalPerimeter;outlineConnect=0;targetShapes=umlLifeline;portConstraint=eastwest;newEdgeStyle={&quot;curved&quot;:0,&quot;rounded&quot;:0};" parent="1" vertex="1">
          <mxGeometry x="135" y="520" width="10" height="120" as="geometry" />
        </mxCell>
        <mxCell id="Z_A2mOTbDEH1X2M4-zve-34" value="Connect" style="shape=umlFrame;whiteSpace=wrap;html=1;pointerEvents=0;width=80;height=20;" parent="1" vertex="1">
          <mxGeometry x="50" y="250" width="320" height="40" as="geometry" />
        </mxCell>
        <mxCell id="Z_A2mOTbDEH1X2M4-zve-36" value="dispatch" style="html=1;verticalAlign=bottom;endArrow=block;curved=0;rounded=0;" parent="1" edge="1">
          <mxGeometry relative="1" as="geometry">
            <mxPoint x="259.5" y="270" as="sourcePoint" />
            <mxPoint x="139.92857142857144" y="270" as="targetPoint" />
          </mxGeometry>
        </mxCell>
        <mxCell id="Z_A2mOTbDEH1X2M4-zve-37" value="return" style="html=1;verticalAlign=bottom;endArrow=open;dashed=1;endSize=8;curved=0;rounded=0;" parent="1" edge="1">
          <mxGeometry x="-0.0036" relative="1" as="geometry">
            <mxPoint x="145" y="410" as="targetPoint" />
            <mxPoint x="259.5" y="410" as="sourcePoint" />
            <mxPoint as="offset" />
          </mxGeometry>
        </mxCell>
        <mxCell id="Z_A2mOTbDEH1X2M4-zve-38" value="dispatch" style="html=1;verticalAlign=bottom;endArrow=block;curved=0;rounded=0;" parent="1" source="Z_A2mOTbDEH1X2M4-zve-44" edge="1">
          <mxGeometry relative="1" as="geometry">
            <mxPoint x="140" y="370" as="sourcePoint" />
            <mxPoint x="259.5000000000002" y="370" as="targetPoint" />
          </mxGeometry>
        </mxCell>
        <mxCell id="Z_A2mOTbDEH1X2M4-zve-39" value="dispatch" style="html=1;verticalAlign=bottom;endArrow=block;curved=0;rounded=0;" parent="1" source="Z_A2mOTbDEH1X2M4-zve-44" edge="1">
          <mxGeometry relative="1" as="geometry">
            <mxPoint x="140" y="390" as="sourcePoint" />
            <mxPoint x="289.5000000000002" y="390" as="targetPoint" />
          </mxGeometry>
        </mxCell>
        <mxCell id="Z_A2mOTbDEH1X2M4-zve-41" value="return" style="html=1;verticalAlign=bottom;endArrow=open;dashed=1;endSize=8;curved=0;rounded=0;" parent="1" edge="1">
          <mxGeometry x="-0.0036" relative="1" as="geometry">
            <mxPoint x="145" y="430" as="targetPoint" />
            <mxPoint x="289.5000000000002" y="430" as="sourcePoint" />
            <mxPoint as="offset" />
          </mxGeometry>
        </mxCell>
        <mxCell id="Z_A2mOTbDEH1X2M4-zve-43" value="Game Tick" style="shape=umlFrame;whiteSpace=wrap;html=1;pointerEvents=0;width=80;height=20;" parent="1" vertex="1">
          <mxGeometry x="50" y="350" width="320" height="100" as="geometry" />
        </mxCell>
        <mxCell id="Z_A2mOTbDEH1X2M4-zve-44" value="" style="html=1;points=[[0,0,0,0,5],[0,1,0,0,-5],[1,0,0,0,5],[1,1,0,0,-5]];perimeter=orthogonalPerimeter;outlineConnect=0;targetShapes=umlLifeline;portConstraint=eastwest;newEdgeStyle={&quot;curved&quot;:0,&quot;rounded&quot;:0};" parent="1" vertex="1">
          <mxGeometry x="135" y="360" width="10" height="80" as="geometry" />
        </mxCell>
        <mxCell id="Z_A2mOTbDEH1X2M4-zve-45" value="Connect" style="shape=umlFrame;whiteSpace=wrap;html=1;pointerEvents=0;width=80;height=20;" parent="1" vertex="1">
          <mxGeometry x="50" y="300" width="320" height="40" as="geometry" />
        </mxCell>
        <mxCell id="Z_A2mOTbDEH1X2M4-zve-46" value="dispatch" style="html=1;verticalAlign=bottom;endArrow=block;curved=0;rounded=0;" parent="1" source="Z_A2mOTbDEH1X2M4-zve-8" edge="1">
          <mxGeometry relative="1" as="geometry">
            <mxPoint x="259.5" y="320" as="sourcePoint" />
            <mxPoint x="139.92857142857144" y="320" as="targetPoint" />
          </mxGeometry>
        </mxCell>
        <mxCell id="Z_A2mOTbDEH1X2M4-zve-47" value="Connect" style="shape=umlFrame;whiteSpace=wrap;html=1;pointerEvents=0;width=80;height=20;" parent="1" vertex="1">
          <mxGeometry x="50" y="460" width="320" height="40" as="geometry" />
        </mxCell>
        <mxCell id="Z_A2mOTbDEH1X2M4-zve-48" value="dispatch" style="html=1;verticalAlign=bottom;endArrow=block;curved=0;rounded=0;" parent="1" source="Z_A2mOTbDEH1X2M4-zve-9" edge="1">
          <mxGeometry relative="1" as="geometry">
            <mxPoint x="290" y="480" as="sourcePoint" />
            <mxPoint x="139.92857142857144" y="480" as="targetPoint" />
          </mxGeometry>
        </mxCell>
        <mxCell id="Z_A2mOTbDEH1X2M4-zve-50" value="&lt;h1 style=&quot;margin-top: 0px; line-height: 100%;&quot;&gt;Notes&lt;/h1&gt;&lt;div&gt;To sync world states, clients should wait for a respose from the server before performing the next game logic tick.&lt;/div&gt;" style="text;html=1;whiteSpace=wrap;overflow=hidden;rounded=0;fillColor=default;strokeColor=default;perimeterSpacing=0;glass=0;shadow=0;dashed=1;dashPattern=1 1;spacing=6;" parent="1" vertex="1">
          <mxGeometry x="300" y="30" width="230" height="120" as="geometry" />
        </mxCell>
        <mxCell id="Z_A2mOTbDEH1X2M4-zve-51" value="return" style="html=1;verticalAlign=bottom;endArrow=open;dashed=1;endSize=8;curved=0;rounded=0;" parent="1" edge="1">
          <mxGeometry x="-0.0036" relative="1" as="geometry">
            <mxPoint x="145" y="860" as="targetPoint" />
            <mxPoint x="259.5" y="860" as="sourcePoint" />
            <mxPoint as="offset" />
          </mxGeometry>
        </mxCell>
        <mxCell id="Z_A2mOTbDEH1X2M4-zve-52" value="dispatch" style="html=1;verticalAlign=bottom;endArrow=block;curved=0;rounded=0;" parent="1" source="Z_A2mOTbDEH1X2M4-zve-56" edge="1">
          <mxGeometry relative="1" as="geometry">
            <mxPoint x="140" y="820" as="sourcePoint" />
            <mxPoint x="259.5000000000002" y="820" as="targetPoint" />
          </mxGeometry>
        </mxCell>
        <mxCell id="Z_A2mOTbDEH1X2M4-zve-53" value="dispatch" style="html=1;verticalAlign=bottom;endArrow=block;curved=0;rounded=0;" parent="1" source="Z_A2mOTbDEH1X2M4-zve-56" edge="1">
          <mxGeometry relative="1" as="geometry">
            <mxPoint x="140" y="840" as="sourcePoint" />
            <mxPoint x="289.5000000000002" y="840" as="targetPoint" />
          </mxGeometry>
        </mxCell>
        <mxCell id="Z_A2mOTbDEH1X2M4-zve-54" value="return" style="html=1;verticalAlign=bottom;endArrow=open;dashed=1;endSize=8;curved=0;rounded=0;" parent="1" edge="1">
          <mxGeometry x="-0.0036" relative="1" as="geometry">
            <mxPoint x="145" y="880" as="targetPoint" />
            <mxPoint x="289.5000000000002" y="880" as="sourcePoint" />
            <mxPoint as="offset" />
          </mxGeometry>
        </mxCell>
        <mxCell id="Z_A2mOTbDEH1X2M4-zve-55" value="Game Tick" style="shape=umlFrame;whiteSpace=wrap;html=1;pointerEvents=0;width=80;height=20;" parent="1" vertex="1">
          <mxGeometry x="50" y="800" width="320" height="100" as="geometry" />
        </mxCell>
        <mxCell id="Z_A2mOTbDEH1X2M4-zve-56" value="" style="html=1;points=[[0,0,0,0,5],[0,1,0,0,-5],[1,0,0,0,5],[1,1,0,0,-5]];perimeter=orthogonalPerimeter;outlineConnect=0;targetShapes=umlLifeline;portConstraint=eastwest;newEdgeStyle={&quot;curved&quot;:0,&quot;rounded&quot;:0};" parent="1" vertex="1">
          <mxGeometry x="135" y="810" width="10" height="80" as="geometry" />
        </mxCell>
        <mxCell id="2_P2-ls7t0HPywvlyD_V-15" value="Fez Multiplayer Mod&lt;br&gt;Networking Diagram&lt;br&gt;(Work in Progress)" style="text;strokeColor=none;fillColor=none;html=1;fontSize=24;fontStyle=1;verticalAlign=middle;align=center;" parent="1" vertex="1">
          <mxGeometry x="20" y="10" width="270" height="100" as="geometry" />
        </mxCell>
        <mxCell id="2_P2-ls7t0HPywvlyD_V-16" value="Note: this is mainly to help organize my thoughts, and may not be 100% accurate to what actually gets programmed" style="text;html=1;align=left;verticalAlign=top;whiteSpace=wrap;rounded=0;spacing=4;" parent="1" vertex="1">
          <mxGeometry x="20" y="110" width="270" height="70" as="geometry" />
        </mxCell>
      </root>
    </mxGraphModel>
  </diagram>
  <diagram id="0-7Qm0cGNNnwY8iMT89a" name="Data Layout">
    <mxGraphModel dx="1276" dy="1032" grid="1" gridSize="10" guides="1" tooltips="1" connect="1" arrows="1" fold="1" page="1" pageScale="1" pageWidth="1100" pageHeight="850" math="0" shadow="0">
      <root>
        <mxCell id="0" />
        <mxCell id="1" parent="0" />
        <mxCell id="KzBRDtOJgjtY7-ivDXEG-3" value="" style="endArrow=open;endFill=1;endSize=12;html=1;rounded=0;entryX=1;entryY=0.066;entryDx=0;entryDy=0;entryPerimeter=0;exitX=0.001;exitY=0.536;exitDx=0;exitDy=0;exitPerimeter=0;" parent="1" source="KzBRDtOJgjtY7-ivDXEG-2" target="KzBRDtOJgjtY7-ivDXEG-1" edge="1">
          <mxGeometry width="160" relative="1" as="geometry">
            <mxPoint x="604" y="464" as="sourcePoint" />
            <mxPoint x="780" y="400" as="targetPoint" />
          </mxGeometry>
        </mxCell>
        <mxCell id="KzBRDtOJgjtY7-ivDXEG-14" value="" style="endArrow=open;endFill=1;endSize=12;html=1;rounded=0;exitX=1;exitY=0.5;exitDx=0;exitDy=0;entryX=0.007;entryY=0.04;entryDx=0;entryDy=0;entryPerimeter=0;" parent="1" source="4qymHgG-RHxKKIISKwvI-11" target="KzBRDtOJgjtY7-ivDXEG-1" edge="1">
          <mxGeometry width="160" relative="1" as="geometry">
            <mxPoint x="250" y="680" as="sourcePoint" />
            <mxPoint x="410" y="680" as="targetPoint" />
          </mxGeometry>
        </mxCell>
        <mxCell id="tJqg2NbDP2f-t8pP_g2x-19" value="Shared Structures" style="swimlane;whiteSpace=wrap;html=1;strokeColor=#006600;dashed=1;dashPattern=1 2;strokeWidth=3;glass=0;rounded=0;swimlaneLine=1;" vertex="1" parent="1">
          <mxGeometry x="400" y="10" width="300" height="830" as="geometry">
            <mxRectangle x="430" y="20" width="140" height="30" as="alternateBounds" />
          </mxGeometry>
        </mxCell>
        <mxCell id="KzBRDtOJgjtY7-ivDXEG-1" value="&lt;div style=&quot;box-sizing:border-box;width:100%;background:#e4e4e4;padding:2px;&quot;&gt;PlayerMetadata&lt;/div&gt;&lt;table style=&quot;width:100%;font-size:1em;&quot; cellpadding=&quot;2&quot; cellspacing=&quot;0&quot;&gt;&lt;tbody&gt;&lt;tr&gt;&lt;td&gt;PK&lt;/td&gt;&lt;td&gt;uuid&lt;/td&gt;&lt;/tr&gt;&lt;tr&gt;&lt;td&gt;FK&lt;/td&gt;&lt;td&gt;CurrentLevelName&lt;br&gt;&lt;/td&gt;&lt;/tr&gt;&lt;tr&gt;&lt;td&gt;&lt;br&gt;&lt;/td&gt;&lt;td&gt;Position&lt;br&gt;&lt;/td&gt;&lt;/tr&gt;&lt;tr&gt;&lt;td&gt;&lt;br&gt;&lt;/td&gt;&lt;td&gt;Action&lt;br&gt;&lt;/td&gt;&lt;/tr&gt;&lt;tr&gt;&lt;td&gt;&lt;br&gt;&lt;/td&gt;&lt;td&gt;AnimFrame&lt;br&gt;&lt;/td&gt;&lt;/tr&gt;&lt;tr&gt;&lt;td&gt;&lt;br&gt;&lt;/td&gt;&lt;td&gt;LookingDirection&lt;br&gt;&lt;/td&gt;&lt;/tr&gt;&lt;tr&gt;&lt;td&gt;&lt;br&gt;&lt;/td&gt;&lt;td&gt;CameraViewpoint&lt;br&gt;&lt;/td&gt;&lt;/tr&gt;&lt;tr&gt;&lt;td&gt;&lt;br&gt;&lt;/td&gt;&lt;td&gt;LastUpdateTimestamp&lt;br&gt;&lt;/td&gt;&lt;/tr&gt;&lt;/tbody&gt;&lt;/table&gt;" style="verticalAlign=top;align=left;overflow=fill;html=1;whiteSpace=wrap;" parent="tJqg2NbDP2f-t8pP_g2x-19" vertex="1">
          <mxGeometry x="50" y="500" width="200" height="170" as="geometry" />
        </mxCell>
        <mxCell id="KzBRDtOJgjtY7-ivDXEG-4" value="Send this data to connected clients" style="text;html=1;align=center;verticalAlign=middle;whiteSpace=wrap;rounded=0;fillColor=#d5e8d4;strokeColor=#82b366;" parent="tJqg2NbDP2f-t8pP_g2x-19" vertex="1">
          <mxGeometry x="50" y="480" width="200" height="20" as="geometry" />
        </mxCell>
        <mxCell id="4qymHgG-RHxKKIISKwvI-13" value="&lt;div style=&quot;box-sizing:border-box;width:100%;background:#e4e4e4;padding:2px;&quot;&gt;ActiveLevelState&lt;/div&gt;&lt;table style=&quot;width:100%;font-size:1em;&quot; cellpadding=&quot;2&quot; cellspacing=&quot;0&quot;&gt;&lt;tbody&gt;&lt;tr&gt;&lt;td&gt;PK&lt;/td&gt;&lt;td&gt;CurrentLevelName&lt;/td&gt;&lt;/tr&gt;&lt;tr&gt;&lt;td&gt;&lt;br&gt;&lt;/td&gt;&lt;td&gt;TBD&lt;br&gt;&lt;/td&gt;&lt;/tr&gt;&lt;tr&gt;&lt;td&gt;&lt;br&gt;&lt;/td&gt;&lt;td&gt;TBD&lt;br&gt;&lt;/td&gt;&lt;/tr&gt;&lt;tr&gt;&lt;td&gt;&lt;br&gt;&lt;/td&gt;&lt;td&gt;TBD&lt;br&gt;&lt;/td&gt;&lt;/tr&gt;&lt;/tbody&gt;&lt;/table&gt;" style="verticalAlign=top;align=left;overflow=fill;html=1;whiteSpace=wrap;" parent="tJqg2NbDP2f-t8pP_g2x-19" vertex="1">
          <mxGeometry x="50" y="370" width="200" height="100" as="geometry" />
        </mxCell>
        <mxCell id="4qymHgG-RHxKKIISKwvI-14" value="if GhostPlayers is false, Sync this data with clients that are in the same room" style="text;html=1;align=center;verticalAlign=middle;whiteSpace=wrap;rounded=0;fillColor=#d5e8d4;strokeColor=#82b366;" parent="tJqg2NbDP2f-t8pP_g2x-19" vertex="1">
          <mxGeometry x="50" y="320" width="200" height="50" as="geometry" />
        </mxCell>
        <mxCell id="4qymHgG-RHxKKIISKwvI-15" value="&lt;div style=&quot;box-sizing:border-box;width:100%;background:#e4e4e4;padding:2px;&quot;&gt;SaveDataUpdate&lt;/div&gt;&lt;table style=&quot;width:100%;font-size:1em;&quot; cellpadding=&quot;2&quot; cellspacing=&quot;0&quot;&gt;&lt;tbody&gt;&lt;tr&gt;&lt;td&gt;PK&lt;/td&gt;&lt;td&gt;TBD&lt;/td&gt;&lt;/tr&gt;&lt;tr&gt;&lt;td&gt;&lt;br&gt;&lt;/td&gt;&lt;td&gt;TBD&lt;br&gt;&lt;/td&gt;&lt;/tr&gt;&lt;tr&gt;&lt;td&gt;&lt;br&gt;&lt;/td&gt;&lt;td&gt;TBD&lt;br&gt;&lt;/td&gt;&lt;/tr&gt;&lt;tr&gt;&lt;td&gt;&lt;br&gt;&lt;/td&gt;&lt;td&gt;TBD&lt;br&gt;&lt;/td&gt;&lt;/tr&gt;&lt;/tbody&gt;&lt;/table&gt;" style="verticalAlign=top;align=left;overflow=fill;html=1;whiteSpace=wrap;" parent="tJqg2NbDP2f-t8pP_g2x-19" vertex="1">
          <mxGeometry x="50" y="210" width="200" height="100" as="geometry" />
        </mxCell>
        <mxCell id="4qymHgG-RHxKKIISKwvI-16" value="Send this data when save data is updated" style="text;html=1;align=center;verticalAlign=middle;whiteSpace=wrap;rounded=0;fillColor=#d5e8d4;strokeColor=#82b366;" parent="tJqg2NbDP2f-t8pP_g2x-19" vertex="1">
          <mxGeometry x="50" y="180" width="200" height="30" as="geometry" />
        </mxCell>
        <mxCell id="4qymHgG-RHxKKIISKwvI-17" value="&lt;div style=&quot;box-sizing:border-box;width:100%;background:#e4e4e4;padding:2px;&quot;&gt;WorldState&lt;/div&gt;&lt;table style=&quot;width:100%;font-size:1em;&quot; cellpadding=&quot;2&quot; cellspacing=&quot;0&quot;&gt;&lt;tbody&gt;&lt;tr&gt;&lt;td&gt;PK&lt;/td&gt;&lt;td&gt;TBD&lt;/td&gt;&lt;/tr&gt;&lt;tr&gt;&lt;td&gt;&lt;br&gt;&lt;/td&gt;&lt;td&gt;List&amp;lt;PlayerMetadata&amp;gt;&lt;/td&gt;&lt;/tr&gt;&lt;tr&gt;&lt;td&gt;&lt;br&gt;&lt;/td&gt;&lt;td&gt;Nullable&amp;lt;SaveData&amp;gt;&lt;br&gt;&lt;/td&gt;&lt;/tr&gt;&lt;tr&gt;&lt;td&gt;&lt;br&gt;&lt;/td&gt;&lt;td&gt;TBD&lt;br&gt;&lt;/td&gt;&lt;/tr&gt;&lt;/tbody&gt;&lt;/table&gt;" style="verticalAlign=top;align=left;overflow=fill;html=1;whiteSpace=wrap;" parent="tJqg2NbDP2f-t8pP_g2x-19" vertex="1">
          <mxGeometry x="50" y="70" width="200" height="100" as="geometry" />
        </mxCell>
        <mxCell id="4qymHgG-RHxKKIISKwvI-18" value="Send this data to the new user when that user connects" style="text;html=1;align=center;verticalAlign=middle;whiteSpace=wrap;rounded=0;fillColor=#d5e8d4;strokeColor=#82b366;" parent="tJqg2NbDP2f-t8pP_g2x-19" vertex="1">
          <mxGeometry x="50" y="40" width="200" height="30" as="geometry" />
        </mxCell>
        <mxCell id="tJqg2NbDP2f-t8pP_g2x-3" value="Send this data to other clients when a client connects" style="text;html=1;align=center;verticalAlign=middle;whiteSpace=wrap;rounded=0;fillColor=#d5e8d4;strokeColor=#82b366;" vertex="1" parent="tJqg2NbDP2f-t8pP_g2x-19">
          <mxGeometry x="50" y="680" width="200" height="30" as="geometry" />
        </mxCell>
        <mxCell id="tJqg2NbDP2f-t8pP_g2x-10" value="&lt;div style=&quot;box-sizing:border-box;width:100%;background:#e4e4e4;padding:2px;&quot;&gt;PlayerAppearance&lt;/div&gt;&lt;table style=&quot;width:100%;font-size:1em;&quot; cellpadding=&quot;2&quot; cellspacing=&quot;0&quot;&gt;&lt;tbody&gt;&lt;tr&gt;&lt;td&gt;PK&lt;/td&gt;&lt;td&gt;uuid&lt;/td&gt;&lt;/tr&gt;&lt;tr&gt;&lt;td&gt;&lt;br&gt;&lt;/td&gt;&lt;td&gt;PlayerName&lt;/td&gt;&lt;/tr&gt;&lt;tr&gt;&lt;td&gt;FK1&lt;/td&gt;&lt;td&gt;CustomCharacterAppearance&lt;br&gt;&lt;/td&gt;&lt;/tr&gt;&lt;/tbody&gt;&lt;/table&gt;" style="verticalAlign=top;align=left;overflow=fill;html=1;whiteSpace=wrap;" vertex="1" parent="tJqg2NbDP2f-t8pP_g2x-19">
          <mxGeometry x="50" y="710" width="200" height="80" as="geometry" />
        </mxCell>
        <mxCell id="bTxD3vcJfoNQiw2K7kQ5-3" value="" style="endArrow=open;endFill=1;endSize=12;html=1;rounded=0;exitX=0.995;exitY=0.446;exitDx=0;exitDy=0;exitPerimeter=0;entryX=1.002;entryY=0.071;entryDx=0;entryDy=0;entryPerimeter=0;edgeStyle=elbowEdgeStyle;" edge="1" parent="tJqg2NbDP2f-t8pP_g2x-19" source="4qymHgG-RHxKKIISKwvI-17" target="KzBRDtOJgjtY7-ivDXEG-1">
          <mxGeometry width="160" relative="1" as="geometry">
            <mxPoint x="260" y="110" as="sourcePoint" />
            <mxPoint x="270" y="480" as="targetPoint" />
            <Array as="points">
              <mxPoint x="270" y="310" />
            </Array>
          </mxGeometry>
        </mxCell>
        <mxCell id="tJqg2NbDP2f-t8pP_g2x-20" value="Client Side" style="swimlane;whiteSpace=wrap;html=1;strokeColor=#006666;dashed=1;dashPattern=1 2;strokeWidth=3;" vertex="1" parent="1">
          <mxGeometry x="10" y="10" width="380" height="830" as="geometry" />
        </mxCell>
        <mxCell id="KzBRDtOJgjtY7-ivDXEG-23" value="MultiplayerClientSettings" style="swimlane;fontStyle=0;childLayout=stackLayout;horizontal=1;startSize=26;fillColor=none;horizontalStack=0;resizeParent=1;resizeParentMax=0;resizeLast=0;collapsible=1;marginBottom=0;whiteSpace=wrap;html=1;" parent="tJqg2NbDP2f-t8pP_g2x-20" vertex="1">
          <mxGeometry x="40" y="40" width="320" height="156" as="geometry" />
        </mxCell>
        <mxCell id="KzBRDtOJgjtY7-ivDXEG-24" value="+ myPlayerName: string" style="text;strokeColor=none;fillColor=none;align=left;verticalAlign=top;spacingLeft=4;spacingRight=4;overflow=hidden;rotatable=0;points=[[0,0.5],[1,0.5]];portConstraint=eastwest;whiteSpace=wrap;html=1;" parent="KzBRDtOJgjtY7-ivDXEG-23" vertex="1">
          <mxGeometry y="26" width="320" height="26" as="geometry" />
        </mxCell>
        <mxCell id="tJqg2NbDP2f-t8pP_g2x-1" value="+ TargetServer: IPEndPoint" style="text;strokeColor=none;fillColor=none;align=left;verticalAlign=top;spacingLeft=4;spacingRight=4;overflow=hidden;rotatable=0;points=[[0,0.5],[1,0.5]];portConstraint=eastwest;whiteSpace=wrap;html=1;" vertex="1" parent="KzBRDtOJgjtY7-ivDXEG-23">
          <mxGeometry y="52" width="320" height="26" as="geometry" />
        </mxCell>
        <mxCell id="KzBRDtOJgjtY7-ivDXEG-25" value="+ SyncWorldState: bool" style="text;strokeColor=none;fillColor=none;align=left;verticalAlign=top;spacingLeft=4;spacingRight=4;overflow=hidden;rotatable=0;points=[[0,0.5],[1,0.5]];portConstraint=eastwest;whiteSpace=wrap;html=1;" parent="KzBRDtOJgjtY7-ivDXEG-23" vertex="1">
          <mxGeometry y="78" width="320" height="26" as="geometry" />
        </mxCell>
        <mxCell id="bTxD3vcJfoNQiw2K7kQ5-6" value="+ GhostPlayers: bool" style="text;strokeColor=none;fillColor=none;align=left;verticalAlign=top;spacingLeft=4;spacingRight=4;overflow=hidden;rotatable=0;points=[[0,0.5],[1,0.5]];portConstraint=eastwest;whiteSpace=wrap;html=1;" vertex="1" parent="KzBRDtOJgjtY7-ivDXEG-23">
          <mxGeometry y="104" width="320" height="26" as="geometry" />
        </mxCell>
        <mxCell id="bTxD3vcJfoNQiw2K7kQ5-5" value="+ CustomCharacterAppearance: TBD" style="text;strokeColor=none;fillColor=none;align=left;verticalAlign=top;spacingLeft=4;spacingRight=4;overflow=hidden;rotatable=0;points=[[0,0.5],[1,0.5]];portConstraint=eastwest;whiteSpace=wrap;html=1;" vertex="1" parent="KzBRDtOJgjtY7-ivDXEG-23">
          <mxGeometry y="130" width="320" height="26" as="geometry" />
        </mxCell>
        <mxCell id="KzBRDtOJgjtY7-ivDXEG-26" value="Use" style="endArrow=open;endSize=12;dashed=1;html=1;rounded=0;" parent="tJqg2NbDP2f-t8pP_g2x-20" source="4qymHgG-RHxKKIISKwvI-4" target="KzBRDtOJgjtY7-ivDXEG-23" edge="1">
          <mxGeometry width="160" relative="1" as="geometry">
            <mxPoint x="420" y="432" as="sourcePoint" />
            <mxPoint x="580" y="432" as="targetPoint" />
          </mxGeometry>
        </mxCell>
        <mxCell id="4qymHgG-RHxKKIISKwvI-4" value="MultiplayerClient" style="swimlane;fontStyle=1;align=center;verticalAlign=top;childLayout=stackLayout;horizontal=1;startSize=26;horizontalStack=0;resizeParent=1;resizeParentMax=0;resizeLast=0;collapsible=1;marginBottom=0;whiteSpace=wrap;html=1;" parent="tJqg2NbDP2f-t8pP_g2x-20" vertex="1">
          <mxGeometry x="40" y="260" width="320" height="216" as="geometry" />
        </mxCell>
        <mxCell id="KzBRDtOJgjtY7-ivDXEG-12" value="+ MyPlayerName: string" style="text;strokeColor=none;fillColor=none;align=left;verticalAlign=top;spacingLeft=4;spacingRight=4;overflow=hidden;rotatable=0;points=[[0,0.5],[1,0.5]];portConstraint=eastwest;whiteSpace=wrap;html=1;" parent="4qymHgG-RHxKKIISKwvI-4" vertex="1">
          <mxGeometry y="26" width="320" height="26" as="geometry" />
        </mxCell>
        <mxCell id="4qymHgG-RHxKKIISKwvI-9" value="+ MyUuid: Guid = Guid.NewGuid()" style="text;strokeColor=none;fillColor=none;align=left;verticalAlign=top;spacingLeft=4;spacingRight=4;overflow=hidden;rotatable=0;points=[[0,0.5],[1,0.5]];portConstraint=eastwest;whiteSpace=wrap;html=1;" parent="4qymHgG-RHxKKIISKwvI-4" vertex="1">
          <mxGeometry y="52" width="320" height="26" as="geometry" />
        </mxCell>
        <mxCell id="KzBRDtOJgjtY7-ivDXEG-10" value="+ Players: ConcurrentDictionary&amp;lt;Guid, PlayerMetadata&amp;gt;" style="text;strokeColor=none;fillColor=none;align=left;verticalAlign=top;spacingLeft=4;spacingRight=4;overflow=hidden;rotatable=0;points=[[0,0.5],[1,0.5]];portConstraint=eastwest;whiteSpace=wrap;html=1;" parent="4qymHgG-RHxKKIISKwvI-4" vertex="1">
          <mxGeometry y="78" width="320" height="26" as="geometry" />
        </mxCell>
        <mxCell id="4qymHgG-RHxKKIISKwvI-11" value="+ MyMetadata: PlayerMetadata" style="text;strokeColor=none;fillColor=none;align=left;verticalAlign=top;spacingLeft=4;spacingRight=4;overflow=hidden;rotatable=0;points=[[0,0.5],[1,0.5]];portConstraint=eastwest;whiteSpace=wrap;html=1;" parent="4qymHgG-RHxKKIISKwvI-4" vertex="1">
          <mxGeometry y="104" width="320" height="26" as="geometry" />
        </mxCell>
        <mxCell id="4qymHgG-RHxKKIISKwvI-12" value="Use" style="endArrow=open;endSize=12;dashed=1;html=1;rounded=0;exitX=0;exitY=0.5;exitDx=0;exitDy=0;edgeStyle=elbowEdgeStyle;" parent="4qymHgG-RHxKKIISKwvI-4" source="4qymHgG-RHxKKIISKwvI-11" target="KzBRDtOJgjtY7-ivDXEG-10" edge="1">
          <mxGeometry width="160" relative="1" as="geometry">
            <mxPoint x="20" y="139.5" as="sourcePoint" />
            <mxPoint x="-10" y="114.5" as="targetPoint" />
            <Array as="points">
              <mxPoint x="-20" y="108" />
            </Array>
          </mxGeometry>
        </mxCell>
        <mxCell id="KzBRDtOJgjtY7-ivDXEG-11" value="+ TargetServer: IPEndPoint" style="text;strokeColor=none;fillColor=none;align=left;verticalAlign=top;spacingLeft=4;spacingRight=4;overflow=hidden;rotatable=0;points=[[0,0.5],[1,0.5]];portConstraint=eastwest;whiteSpace=wrap;html=1;" parent="4qymHgG-RHxKKIISKwvI-4" vertex="1">
          <mxGeometry y="130" width="320" height="26" as="geometry" />
        </mxCell>
        <mxCell id="4qymHgG-RHxKKIISKwvI-6" value="" style="line;strokeWidth=1;fillColor=none;align=left;verticalAlign=middle;spacingTop=-1;spacingLeft=3;spacingRight=3;rotatable=0;labelPosition=right;points=[];portConstraint=eastwest;strokeColor=inherit;" parent="4qymHgG-RHxKKIISKwvI-4" vertex="1">
          <mxGeometry y="156" width="320" height="8" as="geometry" />
        </mxCell>
        <mxCell id="4qymHgG-RHxKKIISKwvI-7" value="+ UpdateMyPlayer(): void" style="text;strokeColor=none;fillColor=none;align=left;verticalAlign=top;spacingLeft=4;spacingRight=4;overflow=hidden;rotatable=0;points=[[0,0.5],[1,0.5]];portConstraint=eastwest;whiteSpace=wrap;html=1;" parent="4qymHgG-RHxKKIISKwvI-4" vertex="1">
          <mxGeometry y="164" width="320" height="26" as="geometry" />
        </mxCell>
        <mxCell id="4qymHgG-RHxKKIISKwvI-8" value="+ Disconnect(): void" style="text;strokeColor=none;fillColor=none;align=left;verticalAlign=top;spacingLeft=4;spacingRight=4;overflow=hidden;rotatable=0;points=[[0,0.5],[1,0.5]];portConstraint=eastwest;whiteSpace=wrap;html=1;" parent="4qymHgG-RHxKKIISKwvI-4" vertex="1">
          <mxGeometry y="190" width="320" height="26" as="geometry" />
        </mxCell>
        <mxCell id="tJqg2NbDP2f-t8pP_g2x-21" value="Server Side" style="swimlane;whiteSpace=wrap;html=1;dashed=1;strokeWidth=3;perimeterSpacing=0;strokeColor=#994C00;dashPattern=1 2;" vertex="1" parent="1">
          <mxGeometry x="710" y="10" width="380" height="830" as="geometry" />
        </mxCell>
        <mxCell id="KzBRDtOJgjtY7-ivDXEG-2" value="&lt;div style=&quot;box-sizing:border-box;width:100%;background:#e4e4e4;padding:2px;&quot;&gt;ServerPlayerMetadata&lt;/div&gt;&lt;table style=&quot;width:100%;font-size:1em;&quot; cellpadding=&quot;2&quot; cellspacing=&quot;0&quot;&gt;&lt;tbody&gt;&lt;tr&gt;&lt;td&gt;PK&lt;/td&gt;&lt;td&gt;uuid&lt;/td&gt;&lt;/tr&gt;&lt;tr&gt;&lt;td&gt;FK&lt;/td&gt;&lt;td&gt;IPEndPoint&lt;br&gt;&lt;/td&gt;&lt;/tr&gt;&lt;tr&gt;&lt;td&gt;&lt;br&gt;&lt;/td&gt;&lt;td&gt;PlayerMetadata&lt;br&gt;&lt;/td&gt;&lt;/tr&gt;&lt;tr&gt;&lt;td&gt;&lt;br&gt;&lt;/td&gt;&lt;td&gt;LastUpdateLocalTimestamp&lt;br&gt;&lt;/td&gt;&lt;/tr&gt;&lt;tr&gt;&lt;td&gt;&lt;br&gt;&lt;/td&gt;&lt;td&gt;PlayerAppearance&lt;/td&gt;&lt;/tr&gt;&lt;/tbody&gt;&lt;/table&gt;" style="verticalAlign=top;align=left;overflow=fill;html=1;whiteSpace=wrap;" parent="tJqg2NbDP2f-t8pP_g2x-21" vertex="1">
          <mxGeometry x="140" y="530" width="200" height="120" as="geometry" />
        </mxCell>
        <mxCell id="KzBRDtOJgjtY7-ivDXEG-13" value="" style="endArrow=open;endFill=1;endSize=12;html=1;rounded=0;exitX=1;exitY=0.5;exitDx=0;exitDy=0;entryX=1.003;entryY=0.117;entryDx=0;entryDy=0;entryPerimeter=0;edgeStyle=elbowEdgeStyle;" parent="tJqg2NbDP2f-t8pP_g2x-21" source="KzBRDtOJgjtY7-ivDXEG-7" target="KzBRDtOJgjtY7-ivDXEG-2" edge="1">
          <mxGeometry width="160" relative="1" as="geometry">
            <mxPoint x="-290" y="660" as="sourcePoint" />
            <mxPoint x="-130" y="660" as="targetPoint" />
            <Array as="points">
              <mxPoint x="360" y="460" />
            </Array>
          </mxGeometry>
        </mxCell>
        <mxCell id="KzBRDtOJgjtY7-ivDXEG-15" value="MultiplayerServerSettings" style="swimlane;fontStyle=0;childLayout=stackLayout;horizontal=1;startSize=26;fillColor=none;horizontalStack=0;resizeParent=1;resizeParentMax=0;resizeLast=0;collapsible=1;marginBottom=0;whiteSpace=wrap;html=1;" parent="tJqg2NbDP2f-t8pP_g2x-21" vertex="1">
          <mxGeometry x="20" y="40" width="320" height="208" as="geometry" />
        </mxCell>
        <mxCell id="KzBRDtOJgjtY7-ivDXEG-16" value="+ listenPort: int" style="text;strokeColor=none;fillColor=none;align=left;verticalAlign=top;spacingLeft=4;spacingRight=4;overflow=hidden;rotatable=0;points=[[0,0.5],[1,0.5]];portConstraint=eastwest;whiteSpace=wrap;html=1;" parent="KzBRDtOJgjtY7-ivDXEG-15" vertex="1">
          <mxGeometry y="26" width="320" height="26" as="geometry" />
        </mxCell>
        <mxCell id="KzBRDtOJgjtY7-ivDXEG-17" value="+ maxAdjustListenPortOnBindFail: int" style="text;strokeColor=none;fillColor=none;align=left;verticalAlign=top;spacingLeft=4;spacingRight=4;overflow=hidden;rotatable=0;points=[[0,0.5],[1,0.5]];portConstraint=eastwest;whiteSpace=wrap;html=1;" parent="KzBRDtOJgjtY7-ivDXEG-15" vertex="1">
          <mxGeometry y="52" width="320" height="26" as="geometry" />
        </mxCell>
        <mxCell id="KzBRDtOJgjtY7-ivDXEG-18" value="+ overduetimeout: long" style="text;strokeColor=none;fillColor=none;align=left;verticalAlign=top;spacingLeft=4;spacingRight=4;overflow=hidden;rotatable=0;points=[[0,0.5],[1,0.5]];portConstraint=eastwest;whiteSpace=wrap;html=1;" parent="KzBRDtOJgjtY7-ivDXEG-15" vertex="1">
          <mxGeometry y="78" width="320" height="26" as="geometry" />
        </mxCell>
        <mxCell id="KzBRDtOJgjtY7-ivDXEG-19" value="+ useAllowList: bool" style="text;strokeColor=none;fillColor=none;align=left;verticalAlign=top;spacingLeft=4;spacingRight=4;overflow=hidden;rotatable=0;points=[[0,0.5],[1,0.5]];portConstraint=eastwest;whiteSpace=wrap;html=1;" parent="KzBRDtOJgjtY7-ivDXEG-15" vertex="1">
          <mxGeometry y="104" width="320" height="26" as="geometry" />
        </mxCell>
        <mxCell id="KzBRDtOJgjtY7-ivDXEG-20" value="+ AllowList: IPFilter" style="text;strokeColor=none;fillColor=none;align=left;verticalAlign=top;spacingLeft=4;spacingRight=4;overflow=hidden;rotatable=0;points=[[0,0.5],[1,0.5]];portConstraint=eastwest;whiteSpace=wrap;html=1;" parent="KzBRDtOJgjtY7-ivDXEG-15" vertex="1">
          <mxGeometry y="130" width="320" height="26" as="geometry" />
        </mxCell>
        <mxCell id="KzBRDtOJgjtY7-ivDXEG-21" value="+ BlockList: IPFilter" style="text;strokeColor=none;fillColor=none;align=left;verticalAlign=top;spacingLeft=4;spacingRight=4;overflow=hidden;rotatable=0;points=[[0,0.5],[1,0.5]];portConstraint=eastwest;whiteSpace=wrap;html=1;" parent="KzBRDtOJgjtY7-ivDXEG-15" vertex="1">
          <mxGeometry y="156" width="320" height="26" as="geometry" />
        </mxCell>
        <mxCell id="bTxD3vcJfoNQiw2K7kQ5-2" value="+ SyncWorldState: bool" style="text;strokeColor=none;fillColor=none;align=left;verticalAlign=top;spacingLeft=4;spacingRight=4;overflow=hidden;rotatable=0;points=[[0,0.5],[1,0.5]];portConstraint=eastwest;whiteSpace=wrap;html=1;" vertex="1" parent="KzBRDtOJgjtY7-ivDXEG-15">
          <mxGeometry y="182" width="320" height="26" as="geometry" />
        </mxCell>
        <mxCell id="KzBRDtOJgjtY7-ivDXEG-22" value="" style="endArrow=open;endFill=1;endSize=12;html=1;rounded=0;entryX=1.002;entryY=0.079;entryDx=0;entryDy=0;entryPerimeter=0;exitX=1;exitY=0.5;exitDx=0;exitDy=0;edgeStyle=elbowEdgeStyle;" parent="tJqg2NbDP2f-t8pP_g2x-21" source="KzBRDtOJgjtY7-ivDXEG-6" target="KzBRDtOJgjtY7-ivDXEG-15" edge="1">
          <mxGeometry width="160" relative="1" as="geometry">
            <mxPoint x="-520" y="260" as="sourcePoint" />
            <mxPoint x="-360" y="260" as="targetPoint" />
            <Array as="points">
              <mxPoint x="360" y="170" />
            </Array>
          </mxGeometry>
        </mxCell>
        <mxCell id="tJqg2NbDP2f-t8pP_g2x-13" value="MultiplayerServer" style="swimlane;fontStyle=1;align=center;verticalAlign=top;childLayout=stackLayout;horizontal=1;startSize=26;horizontalStack=0;resizeParent=1;resizeParentMax=0;resizeLast=0;collapsible=1;marginBottom=0;whiteSpace=wrap;html=1;" vertex="1" parent="tJqg2NbDP2f-t8pP_g2x-21">
          <mxGeometry x="20" y="260" width="320" height="216" as="geometry" />
        </mxCell>
        <mxCell id="KzBRDtOJgjtY7-ivDXEG-6" value="+ Settings: MultiplayerServerSettings" style="text;strokeColor=none;fillColor=none;align=left;verticalAlign=top;spacingLeft=4;spacingRight=4;overflow=hidden;rotatable=0;points=[[0,0.5],[1,0.5]];portConstraint=eastwest;whiteSpace=wrap;html=1;" parent="tJqg2NbDP2f-t8pP_g2x-13" vertex="1">
          <mxGeometry y="26" width="320" height="26" as="geometry" />
        </mxCell>
        <mxCell id="KzBRDtOJgjtY7-ivDXEG-7" value="+ Players: Dictionary&amp;lt;Guid, ServerPlayerMetadata&amp;gt;" style="text;strokeColor=none;fillColor=none;align=left;verticalAlign=top;spacingLeft=4;spacingRight=4;overflow=hidden;rotatable=0;points=[[0,0.5],[1,0.5]];portConstraint=eastwest;whiteSpace=wrap;html=1;" parent="tJqg2NbDP2f-t8pP_g2x-13" vertex="1">
          <mxGeometry y="52" width="320" height="26" as="geometry" />
        </mxCell>
        <mxCell id="tJqg2NbDP2f-t8pP_g2x-14" value="+ SaveData: SaveData" style="text;strokeColor=none;fillColor=none;align=left;verticalAlign=top;spacingLeft=4;spacingRight=4;overflow=hidden;rotatable=0;points=[[0,0.5],[1,0.5]];portConstraint=eastwest;whiteSpace=wrap;html=1;" vertex="1" parent="tJqg2NbDP2f-t8pP_g2x-13">
          <mxGeometry y="78" width="320" height="26" as="geometry" />
        </mxCell>
        <mxCell id="tJqg2NbDP2f-t8pP_g2x-15" value="" style="line;strokeWidth=1;fillColor=none;align=left;verticalAlign=middle;spacingTop=-1;spacingLeft=3;spacingRight=3;rotatable=0;labelPosition=right;points=[];portConstraint=eastwest;strokeColor=inherit;" vertex="1" parent="tJqg2NbDP2f-t8pP_g2x-13">
          <mxGeometry y="104" width="320" height="8" as="geometry" />
        </mxCell>
        <mxCell id="tJqg2NbDP2f-t8pP_g2x-17" value="+ OnPlayerConnect(PlayerAppearance): void" style="text;strokeColor=none;fillColor=none;align=left;verticalAlign=top;spacingLeft=4;spacingRight=4;overflow=hidden;rotatable=0;points=[[0,0.5],[1,0.5]];portConstraint=eastwest;whiteSpace=wrap;html=1;" vertex="1" parent="tJqg2NbDP2f-t8pP_g2x-13">
          <mxGeometry y="112" width="320" height="26" as="geometry" />
        </mxCell>
        <mxCell id="tJqg2NbDP2f-t8pP_g2x-18" value="+ OnPlayerDisconnect(uuid): void" style="text;strokeColor=none;fillColor=none;align=left;verticalAlign=top;spacingLeft=4;spacingRight=4;overflow=hidden;rotatable=0;points=[[0,0.5],[1,0.5]];portConstraint=eastwest;whiteSpace=wrap;html=1;" vertex="1" parent="tJqg2NbDP2f-t8pP_g2x-13">
          <mxGeometry y="138" width="320" height="26" as="geometry" />
        </mxCell>
        <mxCell id="tJqg2NbDP2f-t8pP_g2x-22" value="+ OnUpdate(): void" style="text;strokeColor=none;fillColor=none;align=left;verticalAlign=top;spacingLeft=4;spacingRight=4;overflow=hidden;rotatable=0;points=[[0,0.5],[1,0.5]];portConstraint=eastwest;whiteSpace=wrap;html=1;" vertex="1" parent="tJqg2NbDP2f-t8pP_g2x-13">
          <mxGeometry y="164" width="320" height="26" as="geometry" />
        </mxCell>
        <mxCell id="tJqg2NbDP2f-t8pP_g2x-16" value="+ method(type): type" style="text;strokeColor=none;fillColor=none;align=left;verticalAlign=top;spacingLeft=4;spacingRight=4;overflow=hidden;rotatable=0;points=[[0,0.5],[1,0.5]];portConstraint=eastwest;whiteSpace=wrap;html=1;" vertex="1" parent="tJqg2NbDP2f-t8pP_g2x-13">
          <mxGeometry y="190" width="320" height="26" as="geometry" />
        </mxCell>
        <mxCell id="bTxD3vcJfoNQiw2K7kQ5-1" value="" style="endArrow=open;endFill=1;endSize=12;html=1;rounded=0;entryX=1.003;entryY=0.121;entryDx=0;entryDy=0;entryPerimeter=0;exitX=0.003;exitY=0.836;exitDx=0;exitDy=0;exitPerimeter=0;" edge="1" parent="1" source="KzBRDtOJgjtY7-ivDXEG-2" target="tJqg2NbDP2f-t8pP_g2x-10">
          <mxGeometry width="160" relative="1" as="geometry">
            <mxPoint x="820" y="680" as="sourcePoint" />
            <mxPoint x="659" y="510" as="targetPoint" />
          </mxGeometry>
        </mxCell>
      </root>
    </mxGraphModel>
  </diagram>
</mxfile>
